<svg version="1.1" xmlns="http://www.w3.org/2000/svg" xmlns:xlink="http://www.w3.org/1999/xlink" width="48" height="35" viewBox="0,0,256,186.66406"><g fill="#0d3e7f" fill-rule="nonzero" stroke="none" stroke-width="1" stroke-linecap="butt" stroke-linejoin="miter" stroke-miterlimit="10" stroke-dasharray="" stroke-dashoffset="0" font-family="none" font-weight="none" font-size="none" text-anchor="none" style="mix-blend-mode: normal"><g transform="translate(1.8286,-0.0013) scale(5.33333,5.33333)"><g id="icon_logo"><g id="Vector"><path d="M16.6841,13.0483l-3.0538,3.0176c-0.5829,0.576 -0.5829,1.5099 0,2.086l3.3638,3.3239c0.6264,0.6191 2.2106,0.0329 2.837,-0.5861l2.5972,-2.5665c0.2799,-0.2766 0.4372,-0.6518 0.4372,-1.043v-1.6131c0,-2.4438 2.0048,-4.425 4.4779,-4.425h4.3693c2.473,0 4.4779,1.9812 4.4779,4.425v4.3176c0,2.4439 -2.0048,4.425 -4.4779,4.425h-1.6323c-0.3959,0 -0.7755,0.1554 -1.0554,0.432l-2.5973,2.5666c-0.6264,0.619 -1.2196,2.1845 -0.5932,2.8035l3.3638,3.324c0.5829,0.576 1.528,0.576 2.1109,0l3.2457,-3.2074c0.3848,-0.3802 0.5116,-0.9361 0.4533,-1.4708c-0.1578,-1.4463 0.3243,-2.948 1.4463,-4.0568c1.122,-1.1087 2.6417,-1.5851 4.1054,-1.4292c0.541,0.0577 1.1035,-0.0677 1.4883,-0.4479l4.8289,-4.7718c0.5829,-0.5761 0.5829,-1.51 0,-2.086l-4.2955,-4.2447c-0.4026,-0.3978 -0.9975,-0.5141 -1.5621,-0.4413c-1.387,0.1789 -2.8398,-0.2582 -3.9053,-1.3111c-1.0656,-1.05295 -1.5078,-2.48858 -1.3268,-3.85919c0.0737,-0.5579 -0.044,-1.14579 -0.4466,-1.54363l-4.0316,-3.98397c-0.5829,-0.57602 -1.528,-0.57602 -2.1109,0l-4.637,4.58212c-0.4164,0.41148 -0.5289,1.02408 -0.4276,1.59732c0.2727,1.54312 -0.194,3.18885 -1.4001,4.38065c-1.206,1.1919 -2.8715,1.653 -4.4331,1.3836c-0.5801,-0.1001 -1.2,0.0111 -1.6164,0.4226z"></path><path d="M12.9514,4.4819l3.0537,-3.01765c0.5829,-0.57602 1.528,-0.57602 2.1109,0l3.3638,3.32397c0.6264,0.61902 0.0332,2.18449 -0.5932,2.80351l-2.5972,2.56647c-0.2799,0.2766 -0.6596,0.432 -1.0555,0.432h-1.6323c-2.4731,0 -4.478,1.9811 -4.478,4.425v4.3176c0,2.4439 2.0049,4.425 4.4779,4.425h4.3693c2.4731,0 4.4779,-1.9811 4.4779,-4.425v-1.613c0,-0.3911 0.1573,-0.7663 0.4372,-1.0429l2.5973,-2.5666c0.6264,-0.619 2.2106,-1.2052 2.837,-0.5861l3.3637,3.3239c0.583,0.5761 0.583,1.51 0,2.086l-3.2457,3.2073c-0.3848,0.3803 -0.9473,0.5057 -1.4883,0.448c-1.4637,-0.156 -2.9833,0.3204 -4.1054,1.4292c-1.122,1.1088 -1.6041,2.6104 -1.4463,4.0568c0.0584,0.5347 -0.0685,1.0905 -0.4533,1.4708l-4.8289,4.7718c-0.5829,0.576 -1.528,0.576 -2.1109,0l-4.2955,-4.2447c-0.4026,-0.3979 -0.5203,-0.9858 -0.4466,-1.5436c0.1811,-1.3707 -0.2612,-2.8063 -1.32674,-3.8592c-1.06555,-1.053 -2.51835,-1.49 -3.90536,-1.3111c-0.56457,0.0728 -1.1595,-0.0435 -1.56209,-0.4413l-4.03163,-3.984c-0.58291,-0.576 -0.58291,-1.5099 0,-2.086l4.63694,-4.5821c0.41639,-0.4115 1.03632,-0.5227 1.61642,-0.4226c1.56158,0.2695 3.22704,-0.1917 4.43306,-1.3835c1.2061,-1.19179 1.6728,-2.83756 1.4001,-4.38068c-0.1013,-0.57325 0.0113,-1.18585 0.4277,-1.59732z"></path></g></g></g></g></svg>