<svg width="24" height="24" viewBox="0 0 24 24" fill="none" xmlns="http://www.w3.org/2000/svg">
<path d="M18 22V18.4141L16.707 19.707C16.3165 20.0976 15.6835 20.0976 15.293 19.707C14.9024 19.3165 14.9024 18.6835 15.293 18.293L18.293 15.293L18.3691 15.2246C18.7619 14.9043 19.3409 14.9269 19.707 15.293L22.707 18.293L22.7754 18.3691C23.0957 18.7619 23.0731 19.3409 22.707 19.707C22.3409 20.0731 21.7619 20.0957 21.3691 19.7754L21.293 19.707L20 18.4141V22C20 22.5523 19.5523 23 19 23C18.4477 23 18 22.5523 18 22ZM13 12C13 11.4477 12.5523 11 12 11C11.4477 11 11 11.4477 11 12C11 12.5523 11.4477 13 12 13C12.5523 13 13 12.5523 13 12ZM21 13V8C21 7.73478 20.8946 7.48051 20.707 7.29297C20.5195 7.10543 20.2652 7 20 7H4C3.73478 7 3.4805 7.10543 3.29297 7.29297C3.10543 7.4805 3 7.73478 3 8V16C3 16.2652 3.10543 16.5195 3.29297 16.707C3.48051 16.8946 3.73478 17 4 17H12C12.5523 17 13 17.4477 13 18C13 18.5523 12.5523 19 12 19H4C3.20435 19 2.44151 18.6837 1.87891 18.1211C1.3163 17.5585 1 16.7956 1 16V8C1 7.20435 1.3163 6.44152 1.87891 5.87891C2.44152 5.3163 3.20435 5 4 5H20C20.7957 5 21.5585 5.3163 22.1211 5.87891C22.6837 6.44151 23 7.20435 23 8V13C23 13.5523 22.5523 14 22 14C21.4477 14 21 13.5523 21 13ZM6.00977 11L6.1123 11.0049C6.61655 11.0561 7.00977 11.4822 7.00977 12C7.00977 12.5178 6.61655 12.9439 6.1123 12.9951L6.00977 13H6C5.44772 13 5 12.5523 5 12C5 11.4477 5.44772 11 6 11H6.00977ZM18.0098 11L18.1123 11.0049C18.6165 11.0561 19.0098 11.4822 19.0098 12C19.0098 12.5178 18.6165 12.9439 18.1123 12.9951L18.0098 13H18C17.4477 13 17 12.5523 17 12C17 11.4477 17.4477 11 18 11H18.0098ZM15 12C15 13.6569 13.6569 15 12 15C10.3431 15 9 13.6569 9 12C9 10.3431 10.3431 9 12 9C13.6569 9 15 10.3431 15 12Z" fill="#FFC62C"/>
</svg>
