<svg width="60" height="60" viewBox="0 0 60 60" fill="none" xmlns="http://www.w3.org/2000/svg">
<rect width="60" height="60" rx="4" fill="#FFC62C"/>
<g clip-path="url(#clip0_4074_891)">
<path d="M20.0948 44.2337C15.8313 40.2125 15.418 33.7264 15.418 33.7264C15.418 33.7264 21.9172 33.7598 26.1807 37.781L26.1807 47.535C24.2055 46.9681 21.9406 45.9746 20.0948 44.2337Z" fill="white"/>
<path fill-rule="evenodd" clip-rule="evenodd" d="M45.545 33.7264C45.545 33.7264 45.1317 40.2125 40.8682 44.2337C37.6012 47.3149 34.1507 48.1368 32.0626 48.3125L30.3453 48.3125L28.9376 48.3125L28.9376 33.5342C23.6477 32.8451 19.5626 28.3215 19.5626 22.8438C19.5626 16.8895 24.3895 12.0625 30.3438 12.0625C36.2981 12.0625 41.1251 16.8895 41.1251 22.8438C41.1251 28.2131 37.2 32.6657 32.0626 33.4888L32.0626 41.4801C32.7246 40.1848 33.6072 38.8893 34.7823 37.781C39.0458 33.7598 45.545 33.7264 45.545 33.7264ZM26.4893 27.7882C26.9164 28.3657 27.4698 28.7959 28.1496 29.0786C28.6379 29.2799 29.1583 29.4096 29.7107 29.4675L29.7107 30.8125L31.1364 30.8125L31.1364 29.4732C31.7968 29.4183 32.3773 29.2868 32.8779 29.0786C33.5577 28.7959 34.075 28.3988 34.4299 27.8875C34.7848 27.3701 34.9623 26.7596 34.9623 26.0557C34.9623 25.2857 34.7307 24.6451 34.2675 24.1337C33.8043 23.6224 33.1396 23.1983 32.2733 22.8614L29.7107 21.8689C29.2475 21.6944 28.9046 21.5139 28.682 21.3275C28.4654 21.135 28.3571 20.8763 28.3571 20.5514C28.3571 20.1725 28.5316 19.8596 28.8805 19.613C29.2294 19.3603 29.7046 19.234 30.3062 19.234C30.986 19.234 31.4973 19.3754 31.8402 19.6581C32.1831 19.9348 32.3936 20.3048 32.4718 20.768L34.5653 20.768C34.469 19.6792 34.063 18.831 33.3471 18.2234C32.7903 17.7462 32.0534 17.4545 31.1364 17.3484L31.1364 15.9688L29.7107 15.9688L29.7107 17.3236C28.6456 17.3997 27.7943 17.6876 27.157 18.1873C26.4051 18.7768 26.0291 19.5468 26.0291 20.4973C26.0291 21.3214 26.2697 21.9681 26.751 22.4373C27.2322 22.9066 27.924 23.3186 28.8264 23.6735L31.1364 24.5939C31.6597 24.7804 32.0387 24.985 32.2733 25.2075C32.5139 25.4301 32.6343 25.7369 32.6343 26.1279C32.6343 26.4227 32.535 26.6784 32.3365 26.8949C32.144 27.1055 31.8763 27.2679 31.5334 27.3822C31.1965 27.4965 30.8115 27.5536 30.3784 27.5536C29.9272 27.5536 29.5121 27.4844 29.1332 27.3461C28.7602 27.2017 28.4624 26.9852 28.2398 26.6964C28.0173 26.4077 27.906 26.0377 27.906 25.5865L25.8125 25.5865C25.8426 26.4768 26.0682 27.2107 26.4893 27.7882Z" fill="white"/>
</g>
<defs>
<clipPath id="clip0_4074_891">
<rect width="45" height="45" fill="white" transform="translate(8 8)"/>
</clipPath>
</defs>
</svg>
