<svg width="60" height="60" viewBox="0 0 60 60" fill="none" xmlns="http://www.w3.org/2000/svg">
<rect width="60" height="60" rx="4" fill="#FFC62C"/>
<g clip-path="url(#clip0_4074_885)">
<path d="M11.5312 46.0625H29.0312C27.9896 42.7292 27.4375 35.0313 33.5625 30.9063C35.125 29.8125 36.8438 27.9375 37 26.6875C37.4688 26.4792 38.2937 25.7703 38.4062 24.6563C38.5188 23.5423 37.9628 22.7729 37.625 22.625C39.6562 18.0938 38.1916 13.1071 34.0312 12.1563C30.125 7.93751 18.0938 10.2813 21.375 22.625C21.375 22.625 20.4152 23.4063 20.5938 24.6563C20.8163 26.214 22 26.6875 22 26.6875C22.785 28.7664 23.3321 29.6764 25.125 30.5938V34.5C25.125 35.125 22.9375 36.375 17.9375 37.7813C12.9375 39.1875 11.5312 42.1563 11.5312 46.0625Z" fill="white"/>
<path fill-rule="evenodd" clip-rule="evenodd" d="M41.375 52C47.243 52 52 47.243 52 41.375C52 35.507 47.243 30.75 41.375 30.75C35.507 30.75 30.75 35.507 30.75 41.375C30.75 47.243 35.507 52 41.375 52ZM42.9375 36.375C42.9375 35.8572 42.5178 35.4375 42 35.4375H40.75C40.2322 35.4375 39.8125 35.8572 39.8125 36.375V39.8125H36.375C35.8572 39.8125 35.4375 40.2322 35.4375 40.75V42C35.4375 42.5178 35.8572 42.9375 36.375 42.9375H39.8125V46.375C39.8125 46.8928 40.2322 47.3125 40.75 47.3125H42C42.5178 47.3125 42.9375 46.8928 42.9375 46.375V42.9375H46.375C46.8928 42.9375 47.3125 42.5178 47.3125 42V40.75C47.3125 40.2322 46.8928 39.8125 46.375 39.8125H42.9375V36.375Z" fill="white"/>
</g>
<defs>
<clipPath id="clip0_4074_885">
<rect width="45" height="45" fill="white" transform="translate(7 7)"/>
</clipPath>
</defs>
</svg>
