<svg width="60" height="60" viewBox="0 0 60 60" fill="none" xmlns="http://www.w3.org/2000/svg">
<rect width="60" height="60" rx="4" fill="#FFC62C"/>
<path d="M35.1875 12.5312C35.1875 15.0338 33.1588 17.0625 30.6562 17.0625C28.1537 17.0625 26.125 15.0338 26.125 12.5312C26.125 10.0287 28.1537 8 30.6562 8C33.1588 8 35.1875 10.0287 35.1875 12.5312Z" fill="white"/>
<path fill-rule="evenodd" clip-rule="evenodd" d="M37.6875 32.09C37.6875 30.4733 36.5234 29.3724 35.2153 28.72L35.1875 28.7062V23.0841L43.3613 15.2809C44.0213 14.6508 44.0456 13.605 43.4155 12.945C42.7855 12.285 41.7396 12.2608 41.0796 12.8908L33.7637 19.875H27.2302L19.9142 12.8908C19.2542 12.2608 18.2084 12.285 17.5783 12.945C16.9483 13.605 16.9725 14.6508 17.6325 15.2809C20.4567 17.977 23.2042 20.7961 26.125 23.3867V28.4333C26.0121 28.481 25.9014 28.5311 25.7932 28.5838C24.4387 29.2424 23.3125 30.3851 23.3125 32.09V34.3704C23.1195 34.2467 22.9191 34.1342 22.7153 34.0325C21.3861 33.3696 19.6775 33.0336 18.0176 33.0024C16.36 32.9713 14.6387 33.2421 13.2932 33.8963C11.9387 34.5549 10.8125 35.6976 10.8125 37.4025V47.1148C10.8125 48.8062 11.9223 49.9858 13.2654 50.6949C14.6059 51.4027 16.3271 51.7393 17.9941 51.7498C19.6604 51.7602 21.3859 51.4454 22.7319 50.7404C23.3135 50.4357 23.8477 50.0424 24.2682 49.5569C24.6839 50.0203 25.2043 50.3987 25.7654 50.6949C27.1059 51.4027 28.8271 51.7393 30.4941 51.7498C32.1604 51.7602 33.8859 51.4454 35.2319 50.7404C35.8135 50.4357 36.3477 50.0424 36.7682 49.5569C37.1839 50.0203 37.7043 50.3987 38.2654 50.6949C39.6059 51.4027 41.3271 51.7393 42.9941 51.7498C44.6604 51.7602 46.3859 51.4454 47.7319 50.7404C49.089 50.0296 50.1875 48.8361 50.1875 47.1148V42.715C50.1875 41.0983 49.0234 39.9974 47.7153 39.345C46.3861 38.6821 44.6775 38.3461 43.0176 38.3149C41.36 38.2838 39.6387 38.5546 38.2932 39.2088C38.0848 39.3101 37.8818 39.4229 37.6875 39.5474V32.09ZM25.1875 37.4113C25.1875 38.1457 25.6402 38.805 26.6408 39.3333C27.6441 39.863 29.0479 40.1621 30.5059 40.1713C31.9646 40.1804 33.3641 39.8985 34.3619 39.3759C35.3485 38.8591 35.8125 38.1941 35.8125 37.4113V35.3696C35.6264 35.4955 35.4319 35.6108 35.2319 35.7156C33.8859 36.4206 32.1604 36.7354 30.4941 36.725C28.8271 36.7145 27.1059 36.3779 25.7654 35.6701C25.5667 35.5652 25.3731 35.45 25.1875 35.3244V37.4113ZM34.3619 34.0546C35.3485 33.5378 35.8125 32.8728 35.8125 32.09C35.8125 31.5155 35.4141 30.9144 34.3785 30.3979C33.3639 29.8919 31.9475 29.5921 30.4824 29.5646C29.015 29.537 27.6113 29.7847 26.6131 30.27C25.6238 30.751 25.1875 31.369 25.1875 32.09C25.1875 32.8244 25.6402 33.4838 26.6408 34.012C27.6441 34.5417 29.0479 34.8409 30.5059 34.85C31.9646 34.8591 33.3641 34.5773 34.3619 34.0546ZM35.8125 40.6909C35.6264 40.8168 35.4319 40.9321 35.2319 41.0369C33.8859 41.7419 32.1604 42.0567 30.4941 42.0462C28.8271 42.0358 27.1059 41.6992 25.7654 40.9914C25.5667 40.8865 25.3731 40.7713 25.1875 40.6457V42.7325C25.1875 43.4669 25.6402 44.1263 26.6408 44.6546C27.6441 45.1843 29.0479 45.4834 30.5059 45.4926C31.9646 45.5017 33.3641 45.2198 34.3619 44.6972C35.3485 44.1804 35.8125 43.5154 35.8125 42.7325V40.6909ZM35.8125 46.0122C35.6264 46.1381 35.4319 46.2534 35.2319 46.3582C33.8859 47.0631 32.1604 47.378 30.4941 47.3675C28.8271 47.3571 27.1059 47.0204 25.7654 46.3127C25.5667 46.2078 25.3731 46.0926 25.1875 45.967V47.1148C25.1875 47.8492 25.6402 48.5085 26.6408 49.0368C27.6441 49.5665 29.0479 49.8657 30.5059 49.8748C31.9646 49.8839 33.3641 49.6021 34.3619 49.0794C35.3485 48.5626 35.8125 47.8976 35.8125 47.1148V46.0122ZM37.6875 47.1148C37.6875 47.8492 38.1402 48.5085 39.1408 49.0368C40.1441 49.5665 41.5479 49.8657 43.0059 49.8748C44.4646 49.8839 45.8641 49.6021 46.8619 49.0794C47.8485 48.5626 48.3125 47.8976 48.3125 47.1148V46.0122C48.1264 46.1381 47.9319 46.2534 47.7319 46.3582C46.3859 47.0631 44.6604 47.378 42.9941 47.3675C41.3271 47.3571 39.6059 47.0204 38.2654 46.3127C38.0667 46.2078 37.8731 46.0926 37.6875 45.967V47.1148ZM46.8619 44.6972C47.8485 44.1804 48.3125 43.5154 48.3125 42.7325V42.715C48.3125 42.1405 47.9141 41.5394 46.8785 41.0229C45.8639 40.5169 44.4475 40.2171 42.9824 40.1896C41.515 40.162 40.1113 40.4097 39.1131 40.895C38.1238 41.376 37.6875 41.994 37.6875 42.715V42.7325C37.6875 43.4669 38.1402 44.1263 39.1408 44.6546C40.1441 45.1843 41.5479 45.4834 43.0059 45.4926C44.4646 45.5017 45.8641 45.2198 46.8619 44.6972ZM23.3125 47.1148V46.0122C23.1264 46.1381 22.9319 46.2534 22.7319 46.3582C21.3859 47.0631 19.6604 47.378 17.9941 47.3675C16.3271 47.3571 14.6059 47.0204 13.2654 46.3127C13.0667 46.2078 12.8731 46.0926 12.6875 45.967V47.1148C12.6875 47.8492 13.1402 48.5085 14.1408 49.0368C15.1441 49.5665 16.5479 49.8657 18.0059 49.8748C19.4646 49.8839 20.8641 49.6021 21.8619 49.0794C22.8485 48.5626 23.3125 47.8976 23.3125 47.1148ZM12.6875 42.7325C12.6875 43.4669 13.1402 44.1263 14.1408 44.6546C15.1441 45.1843 16.5479 45.4834 18.0059 45.4926C19.4646 45.5017 20.8641 45.2198 21.8619 44.6972C22.8485 44.1804 23.3125 43.5154 23.3125 42.7325V40.6909C23.1264 40.8168 22.9319 40.9321 22.7319 41.0369C21.3859 41.7419 19.6604 42.0567 17.9941 42.0462C16.3271 42.0358 14.6059 41.6992 13.2654 40.9914C13.0667 40.8865 12.8731 40.7713 12.6875 40.6457V42.7325ZM12.6875 37.4113C12.6875 38.1457 13.1402 38.805 14.1408 39.3333C15.1441 39.863 16.5479 40.1621 18.0059 40.1713C19.4646 40.1804 20.8641 39.8985 21.8619 39.3759C22.8485 38.8591 23.3125 38.1941 23.3125 37.4113V37.4025C23.3125 36.828 22.9141 36.2269 21.8785 35.7104C20.8639 35.2044 19.4475 34.9046 17.9824 34.8771C16.515 34.8495 15.1113 35.0972 14.1131 35.5825C13.1238 36.0635 12.6875 36.6815 12.6875 37.4025V37.4113Z" fill="white"/>
</svg>
